<svg width="63" height="62" viewBox="0 0 63 62" fill="none" xmlns="http://www.w3.org/2000/svg">
    <path
        d="M38.4426 1.15009C39.1148 0.482996 40.0235 0.108643 40.9706 0.108643C41.9176 0.108643 42.8263 0.482996 43.4986 1.15009L51.5846 9.23907C52.2522 9.91043 52.627 10.8187 52.627 11.7656C52.627 12.7124 52.2522 13.6207 51.5846 14.2921L34.2916 31.5861C33.6948 32.1776 32.9093 32.5409 32.0721 32.6125C31.2349 32.6842 30.3991 32.4596 29.7106 31.9781C29.4819 31.8359 29.2703 31.6682 29.0796 31.4781L11.7856 14.1881C11.1185 13.5159 10.7441 12.6072 10.7441 11.6601C10.7441 10.713 11.1185 9.80433 11.7856 9.13208L19.8756 1.0451C20.5466 0.376743 21.455 0.00146484 22.4021 0.00146484C23.3491 0.00146484 24.2576 0.376743 24.9286 1.0451L25.0346 1.15106C26.8126 2.92905 29.2241 3.92792 31.7386 3.92792C34.2531 3.92792 36.6645 2.92905 38.4426 1.15106V1.15009Z"
        fill="#0B7143" />
    <path
        d="M36.0859 60.5552C36.5239 60.9902 37.1161 61.2343 37.7334 61.2343C38.3506 61.2343 38.9429 60.9902 39.3809 60.5552L44.6499 55.2852C44.8671 55.0704 45.0387 54.8139 45.1543 54.5311C45.2699 54.2484 45.3271 53.9452 45.3226 53.6397C45.318 53.3343 45.2517 53.0329 45.1277 52.7537C45.0037 52.4745 44.8244 52.2233 44.6009 52.0151L33.3329 40.7471C32.9603 40.3534 32.4576 40.108 31.9179 40.0565C31.3782 40.005 30.8382 40.1509 30.3979 40.4672C30.2483 40.5602 30.1097 40.6699 29.9849 40.7941L18.7169 52.0591C18.2809 52.4976 18.0361 53.0908 18.0361 53.7092C18.0361 54.3275 18.2809 54.9207 18.7169 55.3591L23.9889 60.6282C24.426 61.0637 25.0179 61.3082 25.6349 61.3082C26.2519 61.3082 26.8438 61.0637 27.2809 60.6282L27.3499 60.5591C28.5087 59.401 30.08 58.7505 31.7184 58.7505C33.3567 58.7505 34.928 59.401 36.0869 60.5591L36.0859 60.5552Z"
        fill="#0B7143" />
    <path
        d="M61.9776 42.2809C62.5665 42.8743 62.8969 43.6765 62.8969 44.5125C62.8969 45.3484 62.5665 46.1506 61.9776 46.744L54.8346 53.881C54.2418 54.4699 53.4402 54.8004 52.6046 54.8004C51.769 54.8004 50.9674 54.4699 50.3746 53.881L35.1096 38.614C34.5869 38.0877 34.2657 37.3946 34.2021 36.6556C34.1385 35.9166 34.3365 35.1788 34.7616 34.571C34.8879 34.3689 35.0361 34.1814 35.2036 34.012L50.4676 18.746C51.061 18.1571 51.8631 17.8267 52.6991 17.8267C53.5351 17.8267 54.3372 18.1571 54.9306 18.746L62.0686 25.887C62.6589 26.4794 62.9903 27.2817 62.9903 28.118C62.9903 28.9543 62.6589 29.7565 62.0686 30.349L61.9756 30.442C61.1983 31.219 60.5816 32.1416 60.161 33.157C59.7403 34.1725 59.5237 35.2609 59.5237 36.36C59.5237 37.4591 59.7403 38.5474 60.161 39.5629C60.5816 40.5783 61.1983 41.5009 61.9756 42.278L61.9776 42.2809Z"
        fill="#0B7143" />
    <path
        d="M1.38577 42.2809C0.796909 42.8743 0.466461 43.6764 0.466461 44.5124C0.466461 45.3484 0.796909 46.1505 1.38577 46.7439L8.52676 53.8829C9.11953 54.4719 9.92119 54.8024 10.7568 54.8024C11.5924 54.8024 12.394 54.4719 12.9868 53.8829L28.2518 38.6159C28.7745 38.0897 29.0957 37.3965 29.1593 36.6575C29.2229 35.9186 29.0248 35.1808 28.5998 34.5729C28.4735 34.3709 28.3253 34.1834 28.1578 34.0139L12.8938 18.7479C12.3004 18.1591 11.4983 17.8286 10.6623 17.8286C9.82627 17.8286 9.02416 18.1591 8.43076 18.7479L1.29276 25.8889C0.702496 26.4814 0.371094 27.2836 0.371094 28.1199C0.371094 28.9562 0.702496 29.7584 1.29276 30.3509L1.38577 30.4439C2.16309 31.221 2.77971 32.1436 3.20041 33.159C3.6211 34.1744 3.83762 35.2628 3.83762 36.3619C3.83762 37.4611 3.6211 38.5494 3.20041 39.5648C2.77971 40.5802 2.16309 41.5028 1.38577 42.2799V42.2809Z"
        fill="#0B7143" />
</svg>